# xmcd
#
# Track frame offsets: 
#        150
#        17175
#        31600
#        46592
#        56402
#        67992
#        87037
#        100555
#        114190
#        127905
#        149642
#        161867
#        171557
#        185480
#        198345
#        213920
#        227317
#        240780
#        256337
#        270460
#
# Disc length: 3787 seconds
#
# Revision: 8
# Processed by: cddbd v1.5.2PL0 Copyright (c) Steve Scherf et al.
# Submitted via: ExactAudioCopyFreeDBPlugin 1.0
#
DISCID=f90ec914
DTITLE=Waylon Jennings - RCA Country Legends - Disc 2
DYEAR=2001
DGENRE=Country
TTITLE0=Can't You See
TTITLE1=Are You Ready For The Country
TTITLE2=Luckenbach, Texas (Back To The Basics Of Love)
TTITLE3=The Wurlitzer Prize (I Don'T Want To Get Over You)
TTITLE4=Mammas Don't Let Your Babies Grow Up To Be Cowboys
TTITLE5=I've Always Been Crazy
TTITLE6=Don't You Think This Outlaw Bit's Done Got Out Of Hand
TTITLE7=Amanda
TTITLE8=Come With Me
TTITLE9=I Ain't Living Long Like This
TTITLE10=Clyde
TTITLE11=Theme From The Dukes Of Hazzard (Good Ol' Boys)
TTITLE12=Storms Never Last (With Jesse Colter)
TTITLE13=Shine
TTITLE14=Lucille (You Won't Do Your Daddy's Will)
TTITLE15=I May Be Used (But Baby I Ain't Used Up)
TTITLE16=Never Could Toe The Mark
TTITLE17=America
TTITLE18=Waltz Me To Heaven
TTITLE19=Drinkin' And Dreamin'
EXTD=Buddha Records YEAR: 2001
EXTT0=
EXTT1=
EXTT2=
EXTT3=
EXTT4=
EXTT5=
EXTT6=
EXTT7=
EXTT8=
EXTT9=
EXTT10=
EXTT11=
EXTT12=
EXTT13=
EXTT14=
EXTT15=
EXTT16=
EXTT17=
EXTT18=
EXTT19=
PLAYORDER=
